<svg width="14" height="16" viewBox="0 0 14 16" fill="none" xmlns="http://www.w3.org/2000/svg">
<path d="M12.6606 3.76483L12.6606 3.76483L12.6625 3.7659C13.1801 4.05917 13.5 4.61369 13.5 5.22258V10.7774C13.5 11.3863 13.1801 11.9408 12.6625 12.2341L12.6625 12.2341L12.6606 12.2352L7.83917 15.0223L7.83842 15.0227C7.57783 15.1746 7.29343 15.25 7 15.25C6.70657 15.25 6.42217 15.1746 6.16158 15.0227L6.16083 15.0223L1.3394 12.2352L1.33941 12.2352L1.33752 12.2341C0.81987 11.9408 0.5 11.3863 0.5 10.7774V5.22258C0.5 4.61447 0.819374 4.05843 1.33963 3.75502C1.33981 3.75491 1.33998 3.75481 1.34016 3.75471L6.16051 0.977921L6.16158 0.977292C6.42217 0.825444 6.70657 0.75 7 0.75C7.29343 0.75 7.57783 0.825444 7.83842 0.977293L7.83917 0.97773L12.6606 3.76483ZM5.91076 13.2198L6.28571 13.4361V13.0032V8.55161V8.40817L6.16188 8.33578L2.30474 6.08095L1.92857 5.86104V6.29677V10.7774V10.9218L2.05362 10.994L5.91076 13.2198ZM6.8737 7.09317L7 7.16711L7.1263 7.09317L10.9449 4.85768L11.3158 4.64052L10.9436 4.42547L7.12508 2.21902L7 2.14675L6.87492 2.21902L3.05635 4.42547L2.68418 4.64052L3.05512 4.85768L6.8737 7.09317ZM11.9464 10.994L12.0714 10.9218V10.7774V6.29677V5.86104L11.6953 6.08095L7.83812 8.33578L7.71429 8.40817V8.55161V13.0032V13.4361L8.08924 13.2198L11.9464 10.994Z" fill="white" stroke="black" stroke-width="0.5"/>
</svg>
