<svg width="14" height="16" viewBox="0 0 14 16" fill="none" xmlns="http://www.w3.org/2000/svg">
<path d="M0.25 14L0.2575 3.5M0.25 14C0.25 14.825 0.9175 15.5 1.75 15.5H12.25C13.075 15.5 13.75 14.825 13.75 14V3.5C13.75 2.675 13.075 2 12.25 2H11.65H11.5V1.85V0.65H11.35M0.25 14H0.4M0.25 14L0.4 14.0001L0.4 14M0.2575 3.5L3.85 0.5V0.65M0.2575 3.5C0.2575 2.675 0.9175 2 1.75 2H2.35L0.2575 3.5ZM11.35 0.65V0.5H10.15V0.65M11.35 0.65H10.15M11.35 0.65V2V2.15H11.5H12.25C12.9922 2.15 13.6 2.75784 13.6 3.5V14C13.6 14.7422 12.9922 15.35 12.25 15.35H1.75C1.00083 15.35 0.4 14.7426 0.4 14M10.15 0.65H10V1.85V2H9.85H4.15H4V1.85V0.65H3.85M10.15 0.65V2V2.15H10H4H3.85V2V0.65M3.85 0.65H2.65V2V2.15H2.5H1.75C1.00181 2.15 0.4075 2.75637 0.4075 3.5V3.50011L0.4 14M1.6 5V5.15H1.75H12.25H12.4V5V3.5V3.35H12.25H1.75H1.6V3.5V5ZM12.25 14.15H12.4V14V6.5V6.35H12.25H1.75H1.6V6.5V14V14.15H1.75H12.25ZM4.6 7.4V8.6H3.4V7.4H4.6ZM10.6 7.4V8.6H9.4V7.4H10.6ZM7.6 7.4V8.6H6.4V7.4H7.6Z" fill="white" stroke="#1C1C1C" stroke-width="0.3"/>
</svg>
