<svg width="14" height="14" viewBox="0 0 14 14" fill="none" xmlns="http://www.w3.org/2000/svg">
<path d="M4.75 4.9H4.9V4.75V1.75V1.6H4.75H1.75H1.6V1.75V4.75V4.9H1.75H4.75ZM4.75 12.4H4.9V12.25V9.25V9.1H4.75H1.75H1.6V9.25V12.25V12.4H1.75H4.75ZM12.25 4.9H12.4V4.75V1.75V1.6H12.25H9.25H9.1V1.75V4.75V4.9H9.25H12.25ZM12.25 12.4H12.4V12.25V9.25V9.1H12.25H9.25H9.1V9.25V12.25V12.4H9.25H12.25ZM6.1 6.1H0.4V0.4H6.1V6.1ZM6.1 13.6H0.4V7.9H6.1V13.6ZM13.6 6.1H7.9V0.4H13.6V6.1ZM13.6 13.6H7.9V7.9H13.6V13.6Z" fill="white" stroke="#1C1C1C" stroke-width="0.3"/>
</svg>
