<svg width="16" height="16" viewBox="0 0 16 16" fill="none" xmlns="http://www.w3.org/2000/svg">
<mask id="path-1-inside-1_244_2597" fill="white">
<path d="M14 2V11H5V2H14ZM14 0.5H5C4.175 0.5 3.5 1.175 3.5 2V11C3.5 11.825 4.175 12.5 5 12.5H14C14.825 12.5 15.5 11.825 15.5 11V2C15.5 1.175 14.825 0.5 14 0.5ZM7.625 7.7525L8.8925 9.4475L10.7525 7.1225L13.25 10.25H5.75L7.625 7.7525ZM0.5 3.5V14C0.5 14.825 1.175 15.5 2 15.5H12.5V14H2V3.5H0.5Z"/>
</mask>
<path d="M14 2V11H5V2H14ZM14 0.5H5C4.175 0.5 3.5 1.175 3.5 2V11C3.5 11.825 4.175 12.5 5 12.5H14C14.825 12.5 15.5 11.825 15.5 11V2C15.5 1.175 14.825 0.5 14 0.5ZM7.625 7.7525L8.8925 9.4475L10.7525 7.1225L13.25 10.25H5.75L7.625 7.7525ZM0.5 3.5V14C0.5 14.825 1.175 15.5 2 15.5H12.5V14H2V3.5H0.5Z" fill="white"/>
<path d="M14 2H14.3V1.7H14V2ZM14 11V11.3H14.3V11H14ZM5 11H4.7V11.3H5V11ZM5 2V1.7H4.7V2H5ZM7.625 7.7525L7.86525 7.57284L7.62547 7.25219L7.38509 7.57238L7.625 7.7525ZM8.8925 9.4475L8.65224 9.62716L8.88449 9.93774L9.12676 9.63491L8.8925 9.4475ZM10.7525 7.1225L10.9869 6.9353L10.7527 6.642L10.5182 6.93509L10.7525 7.1225ZM13.25 10.25V10.55H13.8735L13.4844 10.0628L13.25 10.25ZM5.75 10.25L5.51009 10.0699L5.14964 10.55H5.75V10.25ZM0.5 3.5V3.2H0.2V3.5H0.5ZM12.5 15.5V15.8H12.8V15.5H12.5ZM12.5 14H12.8V13.7H12.5V14ZM2 14H1.7V14.3H2V14ZM2 3.5H2.3V3.2H2V3.5ZM13.7 2V11H14.3V2H13.7ZM14 10.7H5V11.3H14V10.7ZM5.3 11V2H4.7V11H5.3ZM5 2.3H14V1.7H5V2.3ZM14 0.2H5V0.8H14V0.2ZM5 0.2C4.00931 0.2 3.2 1.00931 3.2 2H3.8C3.8 1.34069 4.34069 0.8 5 0.8V0.2ZM3.2 2V11H3.8V2H3.2ZM3.2 11C3.2 11.9907 4.00931 12.8 5 12.8V12.2C4.34069 12.2 3.8 11.6593 3.8 11H3.2ZM5 12.8H14V12.2H5V12.8ZM14 12.8C14.9907 12.8 15.8 11.9907 15.8 11H15.2C15.2 11.6593 14.6593 12.2 14 12.2V12.8ZM15.8 11V2H15.2V11H15.8ZM15.8 2C15.8 1.00931 14.9907 0.2 14 0.2V0.8C14.6593 0.8 15.2 1.34069 15.2 2H15.8ZM7.38475 7.93216L8.65224 9.62716L9.13276 9.26784L7.86525 7.57284L7.38475 7.93216ZM9.12676 9.63491L10.9868 7.30991L10.5182 6.93509L8.65824 9.26009L9.12676 9.63491ZM10.5181 7.3097L13.0156 10.4372L13.4844 10.0628L10.9869 6.9353L10.5181 7.3097ZM13.25 9.95H5.75V10.55H13.25V9.95ZM5.98991 10.4301L7.86491 7.93262L7.38509 7.57238L5.51009 10.0699L5.98991 10.4301ZM0.2 3.5V14H0.8V3.5H0.2ZM0.2 14C0.2 14.9907 1.00931 15.8 2 15.8V15.2C1.34069 15.2 0.8 14.6593 0.8 14H0.2ZM2 15.8H12.5V15.2H2V15.8ZM12.8 15.5V14H12.2V15.5H12.8ZM12.5 13.7H2V14.3H12.5V13.7ZM2.3 14V3.5H1.7V14H2.3ZM2 3.2H0.5V3.8H2V3.2Z" fill="#1C1C1C" mask="url(#path-1-inside-1_244_2597)"/>
</svg>
