<svg width="18" height="18" viewBox="0 0 18 18" fill="none" xmlns="http://www.w3.org/2000/svg">
<path d="M0.15 17.85V0.15H17.85V17.85H0.15Z" stroke="#1C1C1C" stroke-width="0.3"/>
<path d="M4.35 15V15.15H4.5H13.5H13.65V15V6V5.85H13.5H9.9V3V2.85H9.75H4.5H4.35V3V15ZM9.75 13.35H9.6V13.5V14.1H8.4V13.5V13.35H8.25H6.9V12.15H9.75H9.9V12V11.25V11.1H9.75H7.5C7.17034 11.1 6.9 10.8297 6.9 10.5V8.25C6.9 7.92034 7.17034 7.65 7.5 7.65H8.25H8.4V7.5V6.9H9.6V7.5V7.65H9.75H11.1V8.85H8.25H8.1V9V9.75V9.9H8.25H10.5C10.8297 9.9 11.1 10.1703 11.1 10.5V12.75C11.1 13.0797 10.8297 13.35 10.5 13.35H9.75ZM4.5 1.65H10.4379L14.85 6.06213V15C14.85 15.7422 14.2422 16.35 13.5 16.35H4.5C3.75784 16.35 3.15 15.7422 3.15 15V3C3.15 2.25784 3.75784 1.65 4.5 1.65Z" fill="white" stroke="#1C1C1C" stroke-width="0.3"/>
</svg>
