<svg width="16" height="16" viewBox="0 0 16 16" fill="none" xmlns="http://www.w3.org/2000/svg">
<path d="M1.04857 8.32893L1.04858 8.32893L1.04714 8.32753C0.79185 8.07896 0.65 7.73552 0.65 7.3775V2C0.65 1.25784 1.25784 0.65 2 0.65H7.3775C7.73573 0.65 8.07992 0.792056 8.32893 1.04107L14.9514 7.66357C15.4858 8.19798 15.4849 9.048 14.9589 9.57393L9.58143 14.9514C9.05501 15.4779 8.19749 15.4779 7.67107 14.9514L1.04857 8.32893ZM8.51643 14.1061L8.6225 14.2121L8.72857 14.1061L14.1061 8.72857L14.2121 8.6225L14.1061 8.51643L7.48357 1.89393L7.43963 1.85H7.3775H2H1.85V2V7.3775V7.43963L1.89393 7.48357L8.51643 14.1061Z" fill="white" stroke="#1C1C1C" stroke-width="0.3"/>
<path d="M4.85 3.875C4.85 4.41348 4.41348 4.85 3.875 4.85C3.33652 4.85 2.9 4.41348 2.9 3.875C2.9 3.33652 3.33652 2.9 3.875 2.9C4.41348 2.9 4.85 3.33652 4.85 3.875Z" fill="white" stroke="#1C1C1C" stroke-width="0.3"/>
</svg>
